<?xml version="1.0" encoding="utf-8"?>
<!-- Generator: Adobe Illustrator 16.0.3, SVG Export Plug-In . SVG Version: 6.00 Build 0)  -->
<!DOCTYPE svg PUBLIC "-//W3C//DTD SVG 1.1//EN" "http://www.w3.org/Graphics/SVG/1.1/DTD/svg11.dtd">
<svg version="1.1" id="Layer_1" xmlns="http://www.w3.org/2000/svg" xmlns:xlink="http://www.w3.org/1999/xlink" x="0px" y="0px"
	 width="800px" height="800px" viewBox="0 0 800 800" enable-background="new 0 0 800 800" xml:space="preserve">
<path fill="none" stroke="#FFFFFF" stroke-width="33" stroke-miterlimit="10" d="M599.4,624.167
	C552.18,561.648,478.346,524.929,400,525c-78.348-0.071-152.181,36.648-199.4,99.167 M599.366,624.167
	c123.798-110.116,134.89-299.742,24.773-423.541S324.398,65.737,200.6,175.853S65.71,475.595,175.826,599.394
	c7.769,8.733,16.04,17.005,24.773,24.773 M599.366,624.167C544.5,673.105,473.521,700.104,400,700
	c-73.533,0.113-144.525-26.887-199.4-75.833 M500,325c0,55.229-44.771,100-100,100s-100-44.771-100-100s44.771-100,100-100
	S500,269.771,500,325z"/>
</svg>
